<svg xmlns="http://www.w3.org/2000/svg" width="1200" height="1200" viewBox="0 0 1200 1200" role="img" aria-labelledby="title description">
  <title id="title">St Georges Strategy</title>
  <desc id="description">Source-backed financial-services risk intelligence</desc>
  <rect width="1200" height="1200" fill="#0f2233"/>
  <g transform="translate(0 285)">
  <path d="M660 0H1200V630H840C920 518 971 397 994 268C1016 144 994 55 932 0Z" fill="#0b1a29"/>
  <path d="M730 78C897 142 973 255 958 414" fill="none" stroke="#c49a4a" stroke-opacity=".32" stroke-width="1"/>
  <path d="M784 44C978 142 1077 310 1072 542" fill="none" stroke="#f4efe3" stroke-opacity=".12" stroke-width="1"/>
  <path d="M678 516C807 467 936 457 1090 492" fill="none" stroke="#c49a4a" stroke-opacity=".42" stroke-width="2"/>
  <g fill="#c49a4a">
    <circle cx="809" cy="248" r="4"/><circle cx="958" cy="414" r="4"/><circle cx="1012" cy="492" r="4"/>
  </g>
  <rect x="90" y="78" width="90" height="90" fill="none" stroke="#c49a4a" stroke-width="3"/>
  <text x="135" y="133" fill="#f4efe3" font-family="JetBrains Mono, ui-monospace, monospace" font-size="26" font-weight="500" letter-spacing="-2" text-anchor="middle">SGS</text>
  <text x="208" y="126" fill="#f4efe3" font-family="JetBrains Mono, ui-monospace, monospace" font-size="19" font-weight="500" letter-spacing="3">ST GEORGES STRATEGY</text>
  <text x="90" y="303" fill="#f4efe3" font-family="Playfair Display, Georgia, serif" font-size="78" font-weight="700">Risk intelligence</text>
  <text x="90" y="386" fill="#f4efe3" font-family="Playfair Display, Georgia, serif" font-size="78" font-weight="700">that holds up.</text>
  <rect x="90" y="425" width="430" height="3" fill="#c49a4a"/>
  <text x="90" y="485" fill="#d3dce3" font-family="JetBrains Mono, ui-monospace, monospace" font-size="20" letter-spacing="1.5">WEEKLY / SOURCE-BACKED / FINANCIAL SERVICES</text>
  <text x="90" y="558" fill="#c49a4a" font-family="JetBrains Mono, ui-monospace, monospace" font-size="18" letter-spacing="2">STGEORGESSTRATEGY.COM</text>
  </g>
</svg>
